<?xml version="1.0" encoding="UTF-8"?>
<svg xmlns="http://www.w3.org/2000/svg" xmlns:xlink="http://www.w3.org/1999/xlink" width="2834.88" height="2834.88" viewBox="0 0 2834.88 2834.88">
<path fill-rule="evenodd" fill="rgb(2.799988%, 1.800537%, 1.597595%)" fill-opacity="1" d="M 2076.378906 2035.578125 L 2157.921875 2035.578125 C 2173.578125 2035.578125 2188.589844 2041.800781 2199.660156 2052.867188 C 2210.730469 2063.9375 2216.949219 2078.953125 2216.949219 2094.609375 L 2216.949219 2167.238281 C 2216.949219 2182.894531 2210.730469 2197.90625 2199.660156 2208.976562 C 2188.589844 2220.046875 2173.578125 2226.265625 2157.921875 2226.265625 L 676.726562 2226.265625 C 661.070312 2226.265625 646.054688 2220.046875 634.984375 2208.976562 C 623.914062 2197.90625 617.699219 2182.894531 617.699219 2167.238281 L 617.699219 2094.609375 C 617.699219 2078.953125 623.914062 2063.9375 634.984375 2052.867188 C 646.054688 2041.800781 661.070312 2035.578125 676.726562 2035.578125 L 726.375 2035.578125 L 726.375 1702.199219 C 725.933594 1700.980469 725.695312 1699.660156 725.695312 1698.289062 L 725.695312 1674.871094 C 725.695312 1671.460938 725.925781 1668.070312 726.375 1664.71875 L 726.375 1588.789062 C 726.375 1563.171875 736.550781 1538.601562 754.664062 1520.488281 C 772.78125 1502.378906 797.347656 1492.199219 822.964844 1492.199219 L 876.757812 1492.199219 L 876.757812 1293.96875 C 876.539062 1293.089844 876.425781 1292.160156 876.425781 1291.210938 L 876.425781 1267.789062 C 876.425781 1265.410156 876.535156 1263.039062 876.757812 1260.691406 L 876.757812 1223.910156 C 876.757812 1194.261719 888.535156 1165.820312 909.503906 1144.851562 C 930.472656 1123.878906 958.910156 1112.101562 988.5625 1112.101562 L 1080.898438 1112.101562 L 1080.898438 909.121094 C 1080.898438 902.738281 1086.070312 897.570312 1092.449219 897.570312 L 1122.449219 897.570312 L 1122.449219 872.03125 C 1113.550781 869.941406 1102.019531 865.210938 1091.441406 854.671875 C 1078.628906 841.910156 1066.710938 820.089844 1064.449219 782.101562 C 1057.941406 672.539062 1129.621094 611.371094 1129.621094 611.371094 C 1134.269531 607.371094 1141.21875 607.699219 1145.46875 612.109375 C 1145.46875 612.109375 1213.511719 682.648438 1209.871094 781.839844 C 1207.441406 847.96875 1163.078125 866.949219 1145.558594 871.890625 L 1145.558594 897.570312 L 1179.410156 897.570312 C 1185.789062 897.570312 1190.96875 902.738281 1190.96875 909.121094 L 1190.96875 1112.101562 L 1345.261719 1112.101562 L 1345.261719 909.121094 C 1345.261719 902.738281 1350.429688 897.570312 1356.808594 897.570312 L 1386.808594 897.570312 L 1386.808594 872.03125 C 1377.910156 869.941406 1366.378906 865.210938 1355.789062 854.671875 C 1342.988281 841.910156 1331.058594 820.089844 1328.808594 782.101562 C 1322.300781 672.539062 1393.980469 611.371094 1393.980469 611.371094 C 1398.621094 607.371094 1405.578125 607.699219 1409.828125 612.109375 C 1409.828125 612.109375 1477.871094 682.648438 1474.230469 781.839844 C 1471.800781 847.96875 1427.441406 866.949219 1409.921875 871.890625 L 1409.921875 897.570312 L 1443.769531 897.570312 C 1450.148438 897.570312 1455.320312 902.738281 1455.320312 909.121094 L 1455.320312 1112.101562 L 1609.609375 1112.101562 L 1609.609375 909.121094 C 1609.609375 902.738281 1614.789062 897.570312 1621.171875 897.570312 L 1651.171875 897.570312 L 1651.171875 872.03125 C 1642.261719 869.941406 1630.738281 865.210938 1620.148438 854.671875 C 1607.351562 841.910156 1595.421875 820.089844 1593.160156 782.101562 C 1586.660156 672.539062 1658.339844 611.371094 1658.339844 611.371094 C 1662.980469 607.371094 1669.929688 607.699219 1674.191406 612.109375 C 1674.191406 612.109375 1742.230469 682.648438 1738.578125 781.839844 C 1736.160156 847.96875 1691.800781 866.949219 1674.28125 871.890625 L 1674.28125 897.570312 L 1708.128906 897.570312 C 1714.511719 897.570312 1719.679688 902.738281 1719.679688 909.121094 L 1719.679688 1112.101562 L 1814.199219 1112.101562 C 1843.851562 1112.101562 1872.289062 1123.878906 1893.261719 1144.851562 C 1914.21875 1165.820312 1926 1194.261719 1926 1223.910156 L 1926 1277.46875 C 1926.179688 1278.269531 1926.269531 1279.101562 1926.269531 1279.949219 L 1926.269531 1303.421875 C 1926.269531 1305.539062 1926.179688 1307.648438 1926 1309.75 L 1926 1492.199219 L 1979.789062 1492.199219 C 2005.410156 1492.199219 2029.980469 1502.378906 2048.089844 1520.488281 C 2066.210938 1538.601562 2076.378906 1563.171875 2076.378906 1588.789062 Z M 749.480469 2035.578125 L 2053.28125 2035.578125 L 2053.28125 1633.039062 C 2051.570312 1634.378906 2049.929688 1635.820312 2048.378906 1637.371094 C 2038.441406 1647.320312 2032.851562 1660.808594 2032.851562 1674.871094 L 2032.851562 1698.289062 C 2032.851562 1698.421875 2032.851562 1698.539062 2032.839844 1698.671875 L 2032.839844 1710.5 C 2032.839844 1730.480469 2024.910156 1749.640625 2010.78125 1763.769531 C 1996.648438 1777.890625 1977.488281 1785.828125 1957.511719 1785.828125 C 1937.308594 1785.828125 1917.941406 1777.808594 1903.660156 1763.53125 C 1889.378906 1749.25 1881.359375 1729.878906 1881.359375 1709.691406 L 1881.359375 1700.230469 C 1881.148438 1699.359375 1881.039062 1698.460938 1881.039062 1697.53125 L 1881.039062 1674.058594 C 1881.039062 1660.210938 1875.539062 1646.929688 1865.75 1637.128906 C 1855.949219 1627.339844 1842.671875 1621.839844 1828.808594 1621.839844 C 1814.75 1621.839844 1801.261719 1627.421875 1791.308594 1637.371094 C 1781.359375 1647.320312 1775.78125 1660.808594 1775.78125 1674.871094 L 1775.78125 1698.289062 C 1775.78125 1699.089844 1775.691406 1699.878906 1775.539062 1700.628906 L 1775.539062 1710.5 C 1775.539062 1730.480469 1767.601562 1749.640625 1753.46875 1763.769531 C 1739.339844 1777.890625 1720.179688 1785.828125 1700.199219 1785.828125 C 1680.011719 1785.828125 1660.640625 1777.808594 1646.359375 1763.53125 C 1632.078125 1749.25 1624.058594 1729.878906 1624.058594 1709.691406 L 1624.058594 1700.230469 C 1623.851562 1699.359375 1623.738281 1698.460938 1623.738281 1697.53125 L 1623.738281 1674.058594 C 1623.738281 1660.210938 1618.238281 1646.929688 1608.441406 1637.128906 C 1598.648438 1627.339844 1585.359375 1621.839844 1571.511719 1621.839844 C 1557.441406 1621.839844 1543.949219 1627.421875 1534.011719 1637.371094 C 1524.058594 1647.320312 1518.46875 1660.808594 1518.46875 1674.871094 L 1518.46875 1683.628906 C 1518.800781 1684.699219 1518.980469 1685.839844 1518.980469 1687.03125 L 1518.980469 1710.5 C 1518.980469 1730.480469 1511.039062 1749.640625 1496.921875 1763.769531 C 1482.789062 1777.890625 1463.628906 1785.828125 1443.648438 1785.828125 C 1423.449219 1785.828125 1404.078125 1777.808594 1389.800781 1763.53125 C 1375.519531 1749.25 1367.5 1729.878906 1367.5 1709.691406 L 1367.5 1700.230469 C 1367.289062 1699.359375 1367.179688 1698.460938 1367.179688 1697.53125 L 1367.179688 1674.058594 C 1367.179688 1660.210938 1361.679688 1646.929688 1351.890625 1637.128906 C 1342.089844 1627.339844 1328.808594 1621.839844 1314.949219 1621.839844 C 1300.890625 1621.839844 1287.398438 1627.421875 1277.449219 1637.371094 C 1267.5 1647.320312 1261.910156 1660.808594 1261.910156 1674.871094 L 1261.910156 1683.628906 C 1262.25 1684.699219 1262.429688 1685.839844 1262.429688 1687.03125 L 1262.429688 1710.5 C 1262.429688 1730.480469 1254.488281 1749.640625 1240.359375 1763.769531 C 1226.230469 1777.890625 1207.070312 1785.828125 1187.089844 1785.828125 C 1166.890625 1785.828125 1147.53125 1777.808594 1133.25 1763.53125 C 1118.96875 1749.25 1110.941406 1729.878906 1110.941406 1709.691406 L 1110.941406 1700.230469 C 1110.738281 1699.359375 1110.628906 1698.460938 1110.628906 1697.53125 L 1110.628906 1674.058594 C 1110.628906 1660.210938 1105.121094 1646.929688 1095.328125 1637.128906 C 1085.53125 1627.339844 1072.25 1621.839844 1058.398438 1621.839844 C 1044.328125 1621.839844 1030.839844 1627.421875 1020.890625 1637.371094 C 1010.949219 1647.320312 1005.359375 1660.808594 1005.359375 1674.871094 L 1005.359375 1683.628906 C 1005.691406 1684.699219 1005.871094 1685.839844 1005.871094 1687.03125 L 1005.871094 1710.5 C 1005.871094 1730.480469 997.929688 1749.640625 983.804688 1763.769531 C 969.675781 1777.890625 950.511719 1785.828125 930.53125 1785.828125 C 910.339844 1785.828125 890.96875 1777.808594 876.6875 1763.53125 C 862.410156 1749.25 854.386719 1729.878906 854.386719 1709.691406 L 854.386719 1700.230469 C 854.179688 1699.359375 854.070312 1698.460938 854.070312 1697.53125 L 854.070312 1674.058594 C 854.070312 1660.210938 848.566406 1646.929688 838.773438 1637.128906 C 828.976562 1627.339844 815.691406 1621.839844 801.839844 1621.839844 C 787.773438 1621.839844 774.285156 1627.421875 764.335938 1637.371094 C 756.40625 1645.300781 751.25 1655.480469 749.480469 1666.410156 Z M 899.863281 1492.199219 L 1902.890625 1492.199219 L 1902.890625 1357.960938 C 1888.898438 1371.289062 1870.300781 1378.75 1850.929688 1378.75 C 1830.738281 1378.75 1811.371094 1370.730469 1797.089844 1356.449219 C 1782.808594 1342.171875 1774.789062 1322.800781 1774.789062 1302.609375 L 1774.789062 1293.148438 C 1774.578125 1292.28125 1774.46875 1291.378906 1774.46875 1290.449219 L 1774.46875 1266.980469 C 1774.46875 1253.128906 1768.96875 1239.851562 1759.171875 1230.050781 C 1749.378906 1220.261719 1736.089844 1214.75 1722.238281 1214.75 C 1708.171875 1214.75 1694.679688 1220.339844 1684.738281 1230.289062 C 1674.789062 1240.238281 1669.199219 1253.730469 1669.199219 1267.789062 L 1669.199219 1276.550781 C 1669.53125 1277.621094 1669.710938 1278.761719 1669.710938 1279.949219 L 1669.710938 1303.421875 C 1669.710938 1323.398438 1661.769531 1342.558594 1647.648438 1356.691406 C 1633.519531 1370.808594 1614.359375 1378.75 1594.378906 1378.75 C 1574.179688 1378.75 1554.808594 1370.730469 1540.53125 1356.449219 C 1526.25 1342.171875 1518.230469 1322.800781 1518.230469 1302.609375 L 1518.230469 1293.148438 C 1518.019531 1292.28125 1517.910156 1291.378906 1517.910156 1290.449219 L 1517.910156 1266.980469 C 1517.910156 1253.128906 1512.410156 1239.851562 1502.621094 1230.050781 C 1492.820312 1220.261719 1479.539062 1214.75 1465.679688 1214.75 C 1451.621094 1214.75 1438.128906 1220.339844 1428.179688 1230.289062 C 1418.230469 1240.238281 1412.640625 1253.730469 1412.640625 1267.789062 L 1412.640625 1276.550781 C 1412.980469 1277.621094 1413.160156 1278.761719 1413.160156 1279.949219 L 1413.160156 1303.421875 C 1413.160156 1323.398438 1405.21875 1342.558594 1391.089844 1356.691406 C 1376.960938 1370.808594 1357.800781 1378.75 1337.820312 1378.75 C 1317.621094 1378.75 1298.261719 1370.730469 1283.980469 1356.449219 C 1269.699219 1342.171875 1261.671875 1322.800781 1261.671875 1302.609375 L 1261.671875 1293.148438 C 1261.46875 1292.28125 1261.359375 1291.378906 1261.359375 1290.449219 L 1261.359375 1266.980469 C 1261.359375 1253.128906 1255.851562 1239.851562 1246.058594 1230.050781 C 1236.261719 1220.261719 1222.980469 1214.75 1209.128906 1214.75 C 1195.058594 1214.75 1181.570312 1220.339844 1171.621094 1230.289062 C 1161.679688 1240.238281 1156.089844 1253.730469 1156.089844 1267.789062 L 1156.089844 1276.550781 C 1156.421875 1277.621094 1156.601562 1278.761719 1156.601562 1279.949219 L 1156.601562 1303.421875 C 1156.601562 1323.398438 1148.660156 1342.558594 1134.53125 1356.691406 C 1120.410156 1370.820312 1101.238281 1378.75 1081.261719 1378.75 C 1061.070312 1378.75 1041.699219 1370.730469 1027.421875 1356.449219 C 1013.140625 1342.171875 1005.121094 1322.800781 1005.121094 1302.609375 L 1005.121094 1293.148438 C 1004.910156 1292.28125 1004.800781 1291.378906 1004.800781 1290.449219 L 1004.800781 1266.980469 C 1004.800781 1253.128906 999.296875 1239.851562 989.503906 1230.050781 C 979.707031 1220.261719 966.421875 1214.75 952.570312 1214.75 C 938.503906 1214.75 925.015625 1220.339844 915.066406 1230.289062 C 906.527344 1238.828125 901.199219 1249.980469 899.863281 1261.871094 Z M 2053.28125 1606.058594 L 2053.28125 1588.789062 C 2053.28125 1569.300781 2045.539062 1550.609375 2031.75 1536.828125 C 2017.96875 1523.050781 1999.28125 1515.308594 1979.789062 1515.308594 L 822.964844 1515.308594 C 803.476562 1515.308594 784.785156 1523.050781 771.003906 1536.828125 C 757.222656 1550.609375 749.480469 1569.300781 749.480469 1588.789062 L 749.480469 1619.589844 C 763.605469 1606.210938 782.339844 1598.730469 801.839844 1598.730469 C 821.820312 1598.730469 840.984375 1606.671875 855.113281 1620.789062 C 869.238281 1634.921875 877.175781 1654.078125 877.175781 1674.058594 L 877.175781 1683.570312 C 877.382812 1684.441406 877.492188 1685.339844 877.492188 1686.269531 L 877.492188 1709.691406 C 877.492188 1723.75 883.082031 1737.238281 893.027344 1747.191406 C 902.976562 1757.140625 916.464844 1762.71875 930.53125 1762.71875 C 944.386719 1762.71875 957.667969 1757.21875 967.464844 1747.429688 C 977.257812 1737.628906 982.761719 1724.351562 982.761719 1710.5 L 982.761719 1701.691406 C 982.429688 1700.621094 982.253906 1699.46875 982.253906 1698.289062 L 982.253906 1674.871094 C 982.253906 1654.679688 990.273438 1635.308594 1004.550781 1621.03125 C 1018.828125 1606.75 1038.199219 1598.730469 1058.398438 1598.730469 C 1078.378906 1598.730469 1097.539062 1606.671875 1111.671875 1620.789062 C 1125.800781 1634.921875 1133.730469 1654.078125 1133.730469 1674.058594 L 1133.730469 1683.570312 C 1133.941406 1684.441406 1134.050781 1685.339844 1134.050781 1686.269531 L 1134.050781 1709.691406 C 1134.050781 1723.75 1139.640625 1737.238281 1149.589844 1747.191406 C 1159.53125 1757.140625 1173.019531 1762.71875 1187.089844 1762.71875 C 1200.941406 1762.71875 1214.230469 1757.21875 1224.019531 1747.429688 C 1233.820312 1737.628906 1239.320312 1724.351562 1239.320312 1710.5 L 1239.320312 1701.691406 C 1238.988281 1700.621094 1238.808594 1699.46875 1238.808594 1698.289062 L 1238.808594 1674.871094 C 1238.808594 1654.679688 1246.828125 1635.308594 1261.109375 1621.03125 C 1275.390625 1606.75 1294.761719 1598.730469 1314.949219 1598.730469 C 1334.929688 1598.730469 1354.101562 1606.671875 1368.21875 1620.789062 C 1382.351562 1634.921875 1390.289062 1654.078125 1390.289062 1674.058594 L 1390.289062 1683.570312 C 1390.5 1684.441406 1390.609375 1685.339844 1390.609375 1686.269531 L 1390.609375 1709.691406 C 1390.609375 1723.75 1396.199219 1737.238281 1406.140625 1747.191406 C 1416.089844 1757.140625 1429.578125 1762.71875 1443.648438 1762.71875 C 1457.5 1762.71875 1470.78125 1757.21875 1480.578125 1747.429688 C 1490.371094 1737.628906 1495.871094 1724.351562 1495.871094 1710.5 L 1495.871094 1701.691406 C 1495.539062 1700.621094 1495.359375 1699.46875 1495.359375 1698.289062 L 1495.359375 1674.871094 C 1495.359375 1654.679688 1503.390625 1635.308594 1517.671875 1621.03125 C 1531.949219 1606.75 1551.320312 1598.730469 1571.511719 1598.730469 C 1591.488281 1598.730469 1610.648438 1606.671875 1624.78125 1620.789062 C 1638.910156 1634.921875 1646.851562 1654.078125 1646.851562 1674.058594 L 1646.851562 1683.570312 C 1647.050781 1684.441406 1647.160156 1685.339844 1647.160156 1686.269531 L 1647.160156 1709.691406 C 1647.160156 1723.75 1652.75 1737.238281 1662.699219 1747.191406 C 1672.640625 1757.140625 1686.140625 1762.71875 1700.199219 1762.71875 C 1714.050781 1762.71875 1727.339844 1757.21875 1737.128906 1747.429688 C 1746.929688 1737.628906 1752.429688 1724.351562 1752.429688 1710.5 L 1752.429688 1687.03125 C 1752.429688 1686.230469 1752.511719 1685.441406 1752.671875 1684.691406 L 1752.671875 1674.871094 C 1752.671875 1654.679688 1760.691406 1635.308594 1774.96875 1621.03125 C 1789.25 1606.75 1808.621094 1598.730469 1828.808594 1598.730469 C 1848.800781 1598.730469 1867.960938 1606.671875 1882.089844 1620.789062 C 1896.210938 1634.921875 1904.148438 1654.078125 1904.148438 1674.058594 L 1904.148438 1683.570312 C 1904.359375 1684.441406 1904.46875 1685.339844 1904.46875 1686.269531 L 1904.46875 1709.691406 C 1904.46875 1723.75 1910.058594 1737.238281 1920 1747.191406 C 1929.949219 1757.140625 1943.441406 1762.71875 1957.511719 1762.71875 C 1971.359375 1762.71875 1984.640625 1757.21875 1994.441406 1747.429688 C 2004.230469 1737.628906 2009.738281 1724.351562 2009.738281 1710.5 L 2009.738281 1687.03125 C 2009.738281 1686.898438 2009.738281 1686.78125 2009.738281 1686.648438 L 2009.738281 1674.871094 C 2009.738281 1654.679688 2017.761719 1635.308594 2032.039062 1621.03125 C 2038.269531 1614.800781 2045.46875 1609.769531 2053.28125 1606.058594 Z M 1104.011719 1112.101562 L 1167.859375 1112.101562 C 1167.859375 1070.738281 1167.859375 920.671875 1167.859375 920.671875 L 1104.011719 920.671875 Z M 1368.359375 1112.101562 L 1432.21875 1112.101562 C 1432.21875 1070.738281 1432.21875 920.671875 1432.21875 920.671875 L 1368.359375 920.671875 Z M 1632.71875 1112.101562 L 1696.570312 1112.101562 C 1696.570312 1070.738281 1696.570312 920.671875 1696.570312 920.671875 L 1632.71875 920.671875 Z M 1902.890625 1308.679688 L 1902.890625 1223.910156 C 1902.890625 1200.390625 1893.550781 1177.820312 1876.921875 1161.191406 C 1860.28125 1144.558594 1837.71875 1135.210938 1814.199219 1135.210938 L 988.5625 1135.210938 C 965.039062 1135.210938 942.476562 1144.558594 925.84375 1161.191406 C 912.019531 1175.011719 903.230469 1192.929688 900.65625 1212.089844 C 914.726562 1198.96875 933.269531 1191.648438 952.570312 1191.648438 C 972.550781 1191.648438 991.714844 1199.589844 1005.839844 1213.710938 C 1019.96875 1227.839844 1027.910156 1247 1027.910156 1266.980469 L 1027.910156 1276.488281 C 1028.121094 1277.359375 1028.21875 1278.261719 1028.21875 1279.191406 L 1028.21875 1302.609375 C 1028.21875 1316.671875 1033.808594 1330.160156 1043.761719 1340.109375 C 1053.710938 1350.058594 1067.199219 1355.640625 1081.261719 1355.640625 C 1095.121094 1355.640625 1108.398438 1350.140625 1118.191406 1340.351562 C 1127.988281 1330.550781 1133.488281 1317.269531 1133.488281 1303.421875 L 1133.488281 1294.609375 C 1133.160156 1293.539062 1132.980469 1292.390625 1132.980469 1291.210938 L 1132.980469 1267.789062 C 1132.980469 1247.601562 1141 1228.230469 1155.28125 1213.949219 C 1169.558594 1199.671875 1188.929688 1191.648438 1209.128906 1191.648438 C 1229.109375 1191.648438 1248.269531 1199.589844 1262.398438 1213.710938 C 1276.53125 1227.839844 1284.460938 1247 1284.460938 1266.980469 L 1284.460938 1276.488281 C 1284.671875 1277.359375 1284.78125 1278.261719 1284.78125 1279.191406 L 1284.78125 1302.609375 C 1284.78125 1316.671875 1290.371094 1330.160156 1300.320312 1340.109375 C 1310.261719 1350.058594 1323.75 1355.640625 1337.820312 1355.640625 C 1351.671875 1355.640625 1364.960938 1350.140625 1374.75 1340.351562 C 1384.550781 1330.550781 1390.050781 1317.269531 1390.050781 1303.421875 L 1390.050781 1294.609375 C 1389.71875 1293.539062 1389.539062 1292.390625 1389.539062 1291.210938 L 1389.539062 1267.789062 C 1389.539062 1247.601562 1397.558594 1228.230469 1411.839844 1213.949219 C 1426.121094 1199.671875 1445.488281 1191.648438 1465.679688 1191.648438 C 1485.660156 1191.648438 1504.828125 1199.589844 1518.960938 1213.710938 C 1533.078125 1227.839844 1541.019531 1247 1541.019531 1266.980469 L 1541.019531 1276.488281 C 1541.230469 1277.359375 1541.339844 1278.261719 1541.339844 1279.191406 L 1541.339844 1302.609375 C 1541.339844 1316.671875 1546.929688 1330.160156 1556.871094 1340.109375 C 1566.820312 1350.058594 1580.308594 1355.640625 1594.378906 1355.640625 C 1608.230469 1355.640625 1621.511719 1350.140625 1631.308594 1340.351562 C 1641.101562 1330.550781 1646.601562 1317.269531 1646.601562 1303.421875 L 1646.601562 1294.609375 C 1646.269531 1293.539062 1646.101562 1292.390625 1646.101562 1291.210938 L 1646.101562 1267.789062 C 1646.101562 1247.601562 1654.121094 1228.230469 1668.398438 1213.949219 C 1682.679688 1199.671875 1702.050781 1191.648438 1722.238281 1191.648438 C 1742.21875 1191.648438 1761.378906 1199.589844 1775.511719 1213.710938 C 1789.640625 1227.839844 1797.578125 1247 1797.578125 1266.980469 L 1797.578125 1276.488281 C 1797.78125 1277.359375 1797.890625 1278.261719 1797.890625 1279.191406 L 1797.890625 1302.609375 C 1797.890625 1316.671875 1803.480469 1330.160156 1813.429688 1340.109375 C 1823.378906 1350.058594 1836.871094 1355.640625 1850.929688 1355.640625 C 1864.78125 1355.640625 1878.070312 1350.140625 1887.859375 1340.351562 C 1896.410156 1331.800781 1901.691406 1320.601562 1902.890625 1308.679688 Z M 1145.558594 847.351562 C 1160.160156 841.21875 1185.179688 824.421875 1186.78125 780.988281 C 1189.328125 711.53125 1152.859375 657.660156 1136.53125 637.148438 C 1119.699219 655.800781 1083.050781 705.488281 1087.519531 780.730469 C 1089.289062 810.671875 1097.660156 828.238281 1107.738281 838.289062 C 1112.660156 843.191406 1117.871094 846.140625 1122.449219 847.898438 L 1122.449219 824.039062 C 1122.449219 817.671875 1127.628906 812.488281 1134.011719 812.488281 C 1140.378906 812.488281 1145.558594 817.671875 1145.558594 824.039062 Z M 1409.921875 847.351562 C 1424.519531 841.21875 1449.539062 824.421875 1451.140625 780.988281 C 1453.691406 711.53125 1417.21875 657.660156 1400.890625 637.148438 C 1384.058594 655.800781 1347.398438 705.488281 1351.871094 780.730469 C 1353.648438 810.671875 1362.011719 828.238281 1372.101562 838.289062 C 1377.019531 843.191406 1382.21875 846.140625 1386.808594 847.898438 L 1386.808594 824.039062 C 1386.808594 817.671875 1391.988281 812.488281 1398.359375 812.488281 C 1404.738281 812.488281 1409.921875 817.671875 1409.921875 824.039062 Z M 1674.28125 847.351562 C 1688.878906 841.21875 1713.898438 824.421875 1715.488281 780.988281 C 1718.039062 711.53125 1681.578125 657.660156 1665.238281 637.148438 C 1648.410156 655.800781 1611.761719 705.488281 1616.230469 780.730469 C 1618.011719 810.671875 1626.371094 828.238281 1636.460938 838.289062 C 1641.371094 843.191406 1646.578125 846.140625 1651.171875 847.898438 L 1651.171875 824.039062 C 1651.171875 817.671875 1656.339844 812.488281 1662.71875 812.488281 C 1669.101562 812.488281 1674.28125 817.671875 1674.28125 824.039062 Z M 2193.839844 2094.609375 C 2193.839844 2085.082031 2190.058594 2075.945312 2183.320312 2069.207031 C 2176.578125 2062.472656 2167.449219 2058.6875 2157.921875 2058.6875 L 676.726562 2058.6875 C 667.199219 2058.6875 658.0625 2062.472656 651.324219 2069.207031 C 644.589844 2075.945312 640.804688 2085.082031 640.804688 2094.609375 L 640.804688 2167.238281 C 640.804688 2176.765625 644.589844 2185.902344 651.324219 2192.636719 C 658.0625 2199.375 667.199219 2203.160156 676.726562 2203.160156 L 2157.921875 2203.160156 C 2167.449219 2203.160156 2176.578125 2199.375 2183.320312 2192.636719 C 2190.058594 2185.902344 2193.839844 2176.765625 2193.839844 2167.238281 L 2193.839844 2094.609375 "/>
</svg>
